<svg width="48" height="14" viewBox="0 0 48 14" fill="none" xmlns="http://www.w3.org/2000/svg">
  <path
    d="M8.1853 4.82812V6.94531C8.1853 7.63281 7.7478 8.17969 7.13062 8.30469C7.7478 8.42969 8.1853 8.97656 8.1853 9.66406V11.875C8.1853 12.4922 7.98218 13.0078 7.58374 13.4062C7.1853 13.8047 6.67749 14 6.0603 14H1.05249C0.98999 14 0.95874 13.9688 0.950928 13.9062V2.79688C0.950928 2.73438 0.982178 2.70312 1.05249 2.70312H6.0603C6.67749 2.70312 7.1853 2.90625 7.58374 3.30469C7.98218 3.70312 8.1853 4.21094 8.1853 4.82812ZM3.89624 7.11719H5.23999V5.20312H3.89624V7.11719ZM3.89624 11.5078H5.23999V9.58594H3.89624V11.5078ZM11.99 14H9.23999C9.17749 14 9.14624 13.9688 9.13843 13.9062L9.15405 4.0625C9.15405 3.66406 9.27905 3.34375 9.53687 3.08594C9.79468 2.82812 10.1228 2.70312 10.5212 2.70312H15.0134C15.4119 2.70312 15.7322 2.82812 15.99 3.08594C16.2478 3.34375 16.3728 3.66406 16.3728 4.0625V13.9062C16.3728 13.9688 16.3416 14 16.2791 14H13.5291C13.4666 14 13.4353 13.9688 13.4275 13.9062V9.58594H12.0837V13.9062C12.0837 13.9688 12.0525 14 11.99 14ZM12.0837 5.1875V7.10156H13.4275V5.1875H12.0837ZM12.1619 2.04688L11.1541 0.265625C11.115 0.203125 11.1306 0.171875 11.2009 0.171875H13.1853C13.2166 0.171875 13.2478 0.1875 13.2791 0.21875L13.8103 2C13.8494 2.0625 13.8337 2.09375 13.7634 2.09375H12.2791C12.2322 2.09375 12.1931 2.07812 12.1619 2.04688ZM17.4275 2.70312H20.1775C20.24 2.70312 20.2712 2.73438 20.2712 2.79688V13.9062C20.2712 13.9688 20.24 14 20.1775 14H17.4275C17.365 14 17.3337 13.9688 17.3259 13.9062V2.79688C17.3259 2.73438 17.3572 2.70312 17.4275 2.70312ZM32.6853 2.70312H34.3337C34.7322 2.70312 35.0525 2.82812 35.3103 3.08594C35.5681 3.34375 35.6931 3.66406 35.6931 4.0625V13.9062C35.6931 13.9688 35.6619 14 35.5994 14H32.8416C32.7791 14 32.7478 13.9688 32.7478 13.9062V5.1875H32.1384C31.7087 5.1875 31.4041 5.51562 31.4041 5.92188V13.9062C31.4041 13.9688 31.3728 14 31.3103 14H28.5603C28.4978 14 28.4666 13.9688 28.4587 13.9062V5.1875H27.8494C27.4197 5.1875 27.115 5.51562 27.115 5.92188V13.9062C27.115 13.9688 27.0837 14 27.0212 14H24.2712C24.2087 14 24.1775 13.9688 24.1697 13.9062V2.79688C24.1697 2.73438 24.2009 2.70312 24.2712 2.70312H26.365C26.7712 2.70312 27.0994 3.00781 27.0994 3.4375V3.63281C27.2634 3.07812 27.7791 2.70312 28.3962 2.70312H30.0291C30.3572 2.70312 30.6462 2.80469 30.8884 3C31.1384 3.19531 31.2947 3.45312 31.3572 3.75781C31.4822 3.14062 32.0212 2.70312 32.6853 2.70312ZM42.1775 0.265625L41.1697 2.04688C41.1384 2.07812 41.0994 2.09375 41.0525 2.09375H39.5681C39.4978 2.09375 39.4822 2.0625 39.5212 2L40.0525 0.21875C40.0837 0.1875 40.115 0.171875 40.1462 0.171875H42.1306C42.2009 0.171875 42.2166 0.203125 42.1775 0.265625ZM42.5291 14H38.0212C37.6228 14 37.2947 13.875 37.0369 13.6172C36.7791 13.3594 36.6541 13.0391 36.6541 12.6406V4.0625C36.6541 3.66406 36.7791 3.34375 37.0369 3.08594C37.2947 2.82812 37.6228 2.70312 38.0212 2.70312H42.5291C42.615 2.70312 42.6931 2.71094 42.7712 2.72656L43.115 1.47656C43.1384 1.44531 43.1541 1.42969 43.1697 1.42969H45.1619C45.2009 1.42969 45.2166 1.46094 45.1931 1.52344L44.3103 3.66406C44.2869 3.69531 44.2634 3.71094 44.24 3.71094H43.8494C43.8728 3.82031 43.8884 3.9375 43.8884 4.0625V12.6406C43.8884 13.0391 43.7634 13.3594 43.5056 13.6172C43.2478 13.875 42.9275 14 42.5291 14ZM39.5994 5.1875V11.5234H40.9431V5.1875H39.5994ZM44.9431 2.70312H47.6931C47.7556 2.70312 47.7869 2.73438 47.7869 2.79688V13.9062C47.7869 13.9688 47.7556 14 47.6931 14H44.9431C44.8806 14 44.8494 13.9688 44.8416 13.9062V2.79688C44.8416 2.73438 44.8728 2.70312 44.9431 2.70312Z"
    fill="#15191D" />
</svg>